<svg width="24" height="24" viewBox="0 0 24 24" fill="none" xmlns="http://www.w3.org/2000/svg">
<path d="M12 2C7.037 2 3 6.037 3 11C3 14.328 4.82 17.232 7.513 18.79L5.446 20.168C5.26749 20.287 5.132 20.4603 5.05954 20.6623C4.98707 20.8642 4.98148 21.0841 5.04358 21.2895C5.10569 21.4948 5.23219 21.6748 5.40442 21.8027C5.57664 21.9307 5.78545 21.9998 6 22H18C18.2146 22 18.4236 21.931 18.596 21.8032C18.7684 21.6753 18.895 21.4954 18.9573 21.2899C19.0195 21.0845 19.014 20.8645 18.9415 20.6625C18.8691 20.4604 18.7336 20.2871 18.555 20.168L16.488 18.79C19.18 17.232 21 14.328 21 11C21 6.037 16.963 2 12 2ZM12 18C8.141 18 5 14.859 5 11C5 7.141 8.141 4 12 4C15.859 4 19 7.141 19 11C19 14.859 15.859 18 12 18Z" fill="#518EF8"/>
<path d="M12 6C9.243 6 7 8.243 7 11C7 13.757 9.243 16 12 16C14.757 16 17 13.757 17 11C17 8.243 14.757 6 12 6ZM10.5 11C10.303 10.9999 10.1078 10.9611 9.92582 10.8856C9.7438 10.8101 9.57842 10.6995 9.43913 10.5602C9.15783 10.2787 8.99987 9.89696 9 9.499C9.00007 9.30195 9.03894 9.10685 9.11441 8.92482C9.18988 8.7428 9.30046 8.57742 9.43984 8.43813C9.72133 8.15683 10.103 7.99887 10.501 7.999C10.899 7.99913 11.2806 8.15735 11.5619 8.43884C11.8432 8.72033 12.0011 9.10204 12.001 9.5C12.0009 9.89796 11.8427 10.2796 11.5612 10.5609C11.2797 10.8422 10.898 11.0001 10.5 11Z" fill="#C0D7FF"/>
</svg>
