<svg width="120" height="30" viewBox="0 0 120 30" fill="none" xmlns="http://www.w3.org/2000/svg">
<path d="M13 5C8.037 5 4 9.037 4 14C4 17.328 5.82 20.232 8.513 21.79L6.446 23.168C6.26749 23.287 6.132 23.4603 6.05954 23.6623C5.98707 23.8642 5.98148 24.0841 6.04358 24.2895C6.10569 24.4948 6.23219 24.6748 6.40442 24.8027C6.57664 24.9307 6.78545 24.9998 7 25H19C19.2146 25 19.4236 24.931 19.596 24.8032C19.7684 24.6753 19.895 24.4954 19.9573 24.2899C20.0195 24.0845 20.014 23.8645 19.9415 23.6625C19.8691 23.4604 19.7336 23.2871 19.555 23.168L17.488 21.79C20.18 20.232 22 17.328 22 14C22 9.037 17.963 5 13 5ZM13 21C9.141 21 6 17.859 6 14C6 10.141 9.141 7 13 7C16.859 7 20 10.141 20 14C20 17.859 16.859 21 13 21Z" fill="#518EF8"/>
<path d="M13 9C10.243 9 8 11.243 8 14C8 16.757 10.243 19 13 19C15.757 19 18 16.757 18 14C18 11.243 15.757 9 13 9ZM11.5 14C11.303 13.9999 11.1078 13.9611 10.9258 13.8856C10.7438 13.8101 10.5784 13.6995 10.4391 13.5602C10.1578 13.2787 9.99987 12.897 10 12.499C10.0001 12.302 10.0389 12.1068 10.1144 11.9248C10.1899 11.7428 10.3005 11.5774 10.4398 11.4381C10.7213 11.1568 11.103 10.9989 11.501 10.999C11.899 10.9991 12.2806 11.1573 12.5619 11.4388C12.8432 11.7203 13.0011 12.102 13.001 12.5C13.0009 12.898 12.8427 13.2796 12.5612 13.5609C12.2797 13.8422 11.898 14.0001 11.5 14Z" fill="#C0D7FF"/>
<path d="M35.5057 6.54545H39.1534V18.7159C39.1534 19.8409 38.9006 20.8182 38.3949 21.6477C37.8949 22.4773 37.1989 23.1165 36.3068 23.5653C35.4148 24.0142 34.3778 24.2386 33.196 24.2386C32.1449 24.2386 31.1903 24.054 30.3324 23.6847C29.4801 23.3097 28.804 22.7415 28.304 21.9801C27.804 21.2131 27.5568 20.25 27.5625 19.0909H31.2358C31.2472 19.5511 31.3409 19.946 31.517 20.2756C31.6989 20.5994 31.946 20.8494 32.2585 21.0256C32.5767 21.196 32.9517 21.2812 33.3835 21.2812C33.8381 21.2812 34.2216 21.1847 34.5341 20.9915C34.8523 20.7926 35.0938 20.5028 35.2585 20.1222C35.4233 19.7415 35.5057 19.2727 35.5057 18.7159V6.54545ZM42.2045 24V6.54545H49.0909C50.4091 6.54545 51.5341 6.78125 52.4659 7.25284C53.4034 7.71875 54.1165 8.38068 54.6051 9.23864C55.0994 10.0909 55.3466 11.0937 55.3466 12.2472C55.3466 13.4062 55.0966 14.4034 54.5966 15.2386C54.0966 16.0682 53.3722 16.7045 52.4233 17.1477C51.4801 17.5909 50.3381 17.8125 48.9972 17.8125H44.3864V14.8466H48.4006C49.1051 14.8466 49.6903 14.75 50.1562 14.5568C50.6222 14.3636 50.9688 14.0739 51.196 13.6875C51.429 13.3011 51.5455 12.821 51.5455 12.2472C51.5455 11.6676 51.429 11.179 51.196 10.7812C50.9688 10.3835 50.6193 10.0824 50.1477 9.87784C49.6818 9.66761 49.0938 9.5625 48.3835 9.5625H45.8949V24H42.2045ZM51.6307 16.0568L55.9688 24H51.8949L47.6506 16.0568H51.6307ZM73.9943 15.2727C73.9943 17.1761 73.6335 18.7955 72.9119 20.1307C72.196 21.4659 71.2188 22.4858 69.9801 23.1903C68.7472 23.8892 67.3608 24.2386 65.821 24.2386C64.2699 24.2386 62.8778 23.8864 61.6449 23.1818C60.4119 22.4773 59.4375 21.4574 58.7216 20.1222C58.0057 18.7869 57.6477 17.1705 57.6477 15.2727C57.6477 13.3693 58.0057 11.75 58.7216 10.4148C59.4375 9.07955 60.4119 8.0625 61.6449 7.36364C62.8778 6.65909 64.2699 6.30682 65.821 6.30682C67.3608 6.30682 68.7472 6.65909 69.9801 7.36364C71.2188 8.0625 72.196 9.07955 72.9119 10.4148C73.6335 11.75 73.9943 13.3693 73.9943 15.2727ZM70.2528 15.2727C70.2528 14.0398 70.0682 13 69.6989 12.1534C69.3352 11.3068 68.821 10.6648 68.1562 10.2273C67.4915 9.78977 66.7131 9.57102 65.821 9.57102C64.929 9.57102 64.1506 9.78977 63.4858 10.2273C62.821 10.6648 62.304 11.3068 61.9347 12.1534C61.571 13 61.3892 14.0398 61.3892 15.2727C61.3892 16.5057 61.571 17.5455 61.9347 18.392C62.304 19.2386 62.821 19.8807 63.4858 20.3182C64.1506 20.7557 64.929 20.9744 65.821 20.9744C66.7131 20.9744 67.4915 20.7557 68.1562 20.3182C68.821 19.8807 69.3352 19.2386 69.6989 18.392C70.0682 17.5455 70.2528 16.5057 70.2528 15.2727ZM92.7678 15.2727C92.7678 17.1761 92.407 18.7955 91.6854 20.1307C90.9695 21.4659 89.9922 22.4858 88.7536 23.1903C87.5206 23.8892 86.1342 24.2386 84.5945 24.2386C83.0433 24.2386 81.6513 23.8864 80.4183 23.1818C79.1854 22.4773 78.2109 21.4574 77.495 20.1222C76.7791 18.7869 76.4212 17.1705 76.4212 15.2727C76.4212 13.3693 76.7791 11.75 77.495 10.4148C78.2109 9.07955 79.1854 8.0625 80.4183 7.36364C81.6513 6.65909 83.0433 6.30682 84.5945 6.30682C86.1342 6.30682 87.5206 6.65909 88.7536 7.36364C89.9922 8.0625 90.9695 9.07955 91.6854 10.4148C92.407 11.75 92.7678 13.3693 92.7678 15.2727ZM89.0263 15.2727C89.0263 14.0398 88.8416 13 88.4723 12.1534C88.1087 11.3068 87.5945 10.6648 86.9297 10.2273C86.2649 9.78977 85.4865 9.57102 84.5945 9.57102C83.7024 9.57102 82.924 9.78977 82.2592 10.2273C81.5945 10.6648 81.0774 11.3068 80.7081 12.1534C80.3445 13 80.1626 14.0398 80.1626 15.2727C80.1626 16.5057 80.3445 17.5455 80.7081 18.392C81.0774 19.2386 81.5945 19.8807 82.2592 20.3182C82.924 20.7557 83.7024 20.9744 84.5945 20.9744C85.4865 20.9744 86.2649 20.7557 86.9297 20.3182C87.5945 19.8807 88.1087 19.2386 88.4723 18.392C88.8416 17.5455 89.0263 16.5057 89.0263 15.2727ZM95.5014 6.54545H100.053L104.859 18.2727H105.064L109.871 6.54545H114.422V24H110.842V12.6392H110.697L106.18 23.9148H103.743L99.2259 12.5966H99.081V24H95.5014V6.54545Z" fill="white"/>
</svg>
